<svg xmlns="http://www.w3.org/2000/svg" version="1.1" xmlns:xlink="http://www.w3.org/1999/xlink" xmlns:svgjs="http://svgjs.dev/svgjs" width="1000" height="1000" viewBox="0 0 1000 1000"><rect width="1000" height="1000" fill="#ffffff"></rect><g transform="matrix(0.7,0,0,0.7,149.57576482512985,365.6867522587869)"><svg viewBox="0 0 396 152" data-background-color="#ffffff" preserveAspectRatio="xMidYMid meet" height="383" width="1000" xmlns="http://www.w3.org/2000/svg" xmlns:xlink="http://www.w3.org/1999/xlink"><g id="tight-bounds" transform="matrix(1,0,0,1,0.24000410107350945,0.1492489991212267)"><svg viewBox="0 0 395.52 151.70150200175755" height="151.70150200175755" width="395.52"><g><svg viewBox="0 0 524.0522931610719 200.99999999999997" height="151.70150200175755" width="395.52"><g><rect width="5.503290058110014" height="200.99999999999997" x="201.4626538787024" y="0" fill="#000000" opacity="1" stroke-width="0" stroke="transparent" fill-opacity="1" class="rect-o-0" data-fill-palette-color="primary" rx="1%" id="o-0" data-palette-color="#fce44d"></rect></g><g transform="matrix(1,0,0,1,221.37246241354023,0.4999999999999858)"><svg viewBox="0 0 302.6798307475317 200" height="200" width="302.6798307475317"><g id="textblocktransform"><svg viewBox="0 0 302.6798307475317 200" height="200" width="302.6798307475317" id="textblock"><g><svg viewBox="0 0 302.6798307475317 200" height="200" width="302.6798307475317"><g transform="matrix(1,0,0,1,0,0)"><svg width="302.6798307475317" viewBox="1.3999992609024048 -32.099998474121094 163.3500213623047 103.25" height="200" data-palette-color="#fce44d"><svg></svg><svg></svg><svg></svg><g class="undefined-text-0" data-fill-palette-color="primary" id="text-0"><path xmlns="http://www.w3.org/2000/svg" d="M22.2-31.85l0.15 0.2-0.2 0.8h-9.75v30.85h-1v-30.85h-9.85l-0.15-0.2 0.2-0.8zM37.15-32.1c4.2 0 7.427 1.35 9.68 4.05 2.247 2.7 3.37 6.567 3.37 11.6v0c0 5.367-1.167 9.49-3.5 12.37-2.333 2.887-5.683 4.33-10.05 4.33v0c-4.167 0-7.377-1.393-9.63-4.18-2.247-2.78-3.37-6.753-3.37-11.92v0c0-5.233 1.167-9.25 3.5-12.05 2.333-2.8 5.667-4.2 10-4.2zM37.15-31.1c-4.033 0-7.123 1.317-9.27 3.95-2.153 2.633-3.23 6.4-3.23 11.3v0c0 4.833 1.033 8.56 3.1 11.18 2.067 2.613 5.033 3.92 8.9 3.92v0c4.033 0 7.133-1.36 9.3-4.08 2.167-2.713 3.25-6.587 3.25-11.62v0c0-4.7-1.04-8.317-3.12-10.85-2.087-2.533-5.063-3.8-8.93-3.8zM78.9-31.85v20.4c0.1 3.667-0.817 6.523-2.75 8.57-1.933 2.053-4.683 3.08-8.25 3.08v0c-3.567 0-6.29-1-8.17-3-1.887-2-2.83-4.883-2.83-8.65v0-20.4h1v20.4c-0.033 3.433 0.817 6.067 2.55 7.9 1.733 1.833 4.217 2.75 7.45 2.75v0c3.233 0 5.71-0.917 7.43-2.75 1.713-1.833 2.57-4.467 2.57-7.9v0-20.4zM97.45-13.35c2.6 4.267 5.617 8.633 9.05 13.1v0 0.2c-0.167 0.167-0.367 0.3-0.6 0.4v0l-0.3-0.1c-3.567-4.667-6.633-9.133-9.2-13.4v0h-6.7v13.15h-1v-31.85l7.05-0.1c2.9 0 5.133 0.75 6.7 2.25 1.567 1.5 2.35 3.667 2.35 6.5v0c0 2.467-0.633 4.54-1.9 6.22-1.267 1.687-3.083 2.897-5.45 3.63zM89.7-30.9v16.75h7.1c2.233-0.567 3.96-1.633 5.18-3.2 1.213-1.567 1.82-3.517 1.82-5.85v0c0-2.467-0.667-4.367-2-5.7-1.333-1.333-3.233-2-5.7-2v0z" fill="#000000" fill-rule="nonzero" stroke="none" stroke-width="1" stroke-linecap="butt" stroke-linejoin="miter" stroke-miterlimit="10" stroke-dasharray="" stroke-dashoffset="0" font-family="none" font-weight="none" font-size="none" text-anchor="none" style="mix-blend-mode: normal" data-fill-palette-color="primary" opacity="1"></path><path xmlns="http://www.w3.org/2000/svg" d="M15.55 3.35c4.467 0 7.9 1.307 10.3 3.92 2.4 2.62 3.6 6.363 3.6 11.23v0c0 5.533-1.24 9.783-3.72 12.75-2.487 2.967-6.047 4.45-10.68 4.45v0c-1.133 0-2.633-0.023-4.5-0.07-1.867-0.053-3.55-0.113-5.05-0.18v0-31.85zM15.05 34.7c4.3 0 7.61-1.4 9.93-4.2 2.313-2.8 3.47-6.8 3.47-12v0c0-4.567-1.117-8.067-3.35-10.5-2.233-2.433-5.417-3.65-9.55-3.65v0c-1.033 0-2.44 0.023-4.22 0.07-1.787 0.053-3.397 0.113-4.83 0.18v0 29.85c1.4 0.067 2.927 0.123 4.58 0.17 1.647 0.053 2.97 0.08 3.97 0.08zM52.95 34.45l0.15 0.2-0.2 0.8h-15.55v-31.85h15.4l0.15 0.2-0.2 0.8h-14.35v13.85h11.9l0.15 0.2-0.2 0.8h-11.85v15zM66.85 3.45c2 0 4.033 0.483 6.1 1.45v0l-0.2 0.9-0.35 0.05c-0.933-0.467-1.9-0.817-2.9-1.05-1-0.233-1.917-0.35-2.75-0.35v0c-1.6 0-3 0.34-4.2 1.02-1.2 0.687-2.117 1.57-2.75 2.65-0.633 1.087-0.95 2.197-0.95 3.33v0c0 1.167 0.317 2.173 0.95 3.02 0.633 0.853 1.41 1.553 2.33 2.1 0.913 0.553 2.187 1.23 3.82 2.03v0c1.8 0.9 3.227 1.683 4.28 2.35 1.047 0.667 1.947 1.523 2.7 2.57 0.747 1.053 1.12 2.33 1.12 3.83v0c0 1.467-0.4 2.84-1.2 4.12-0.8 1.287-1.907 2.303-3.32 3.05-1.42 0.753-3.013 1.13-4.78 1.13v0c-1.3 0-2.633-0.2-4-0.6-1.367-0.4-2.567-0.983-3.6-1.75v0l0.05-0.95 0.25-0.1c1 0.8 2.15 1.4 3.45 1.8 1.3 0.4 2.567 0.6 3.8 0.6v0c1.633 0 3.093-0.35 4.38-1.05 1.28-0.7 2.263-1.61 2.95-2.73 0.68-1.113 1.02-2.287 1.02-3.52v0c0-1.267-0.333-2.35-1-3.25-0.667-0.9-1.473-1.65-2.42-2.25-0.953-0.6-2.263-1.3-3.93-2.1v0c-1.767-0.867-3.157-1.627-4.17-2.28-1.02-0.647-1.887-1.48-2.6-2.5-0.72-1.013-1.08-2.237-1.08-3.67v0c0-1.433 0.383-2.75 1.15-3.95 0.767-1.2 1.833-2.15 3.2-2.85 1.367-0.7 2.917-1.05 4.65-1.05z" fill="#000000" fill-rule="nonzero" stroke="none" stroke-width="1" stroke-linecap="butt" stroke-linejoin="miter" stroke-miterlimit="10" stroke-dasharray="" stroke-dashoffset="0" font-family="none" font-weight="none" font-size="none" text-anchor="none" style="mix-blend-mode: normal" data-fill-palette-color="primary" opacity="1"></path><path xmlns="http://www.w3.org/2000/svg" d="M31.85 39.05l3.4 31.85h-1.05l-1-9.75-2.2-19.7h-0.25l-10.7 25.4h-1.25l-10.5-25.4h-0.25l-2.15 19.7-1.05 9.75h-1.05l3.5-31.85h1.15l2 4.95 8.85 21.4h0.2l9.35-21.95 1.85-4.4zM45.55 39.05v31.85h-1v-31.85zM79.05 39l-0.05 23.1-0.05 8.8h-0.95l-20.2-29.75h-0.2l-0.05 19.8v9.95h-1v-9.5l0.05-22.35h0.95l20.2 29.75h0.2l0.1-29.7zM99.2 38.8c4.2 0 7.427 1.35 9.68 4.05 2.247 2.7 3.37 6.567 3.37 11.6v0c0 5.367-1.167 9.49-3.5 12.37-2.333 2.887-5.683 4.33-10.05 4.33v0c-4.167 0-7.373-1.393-9.62-4.18-2.253-2.78-3.38-6.753-3.38-11.92v0c0-5.233 1.167-9.25 3.5-12.05 2.333-2.8 5.667-4.2 10-4.2zM99.2 39.8c-4.033 0-7.123 1.317-9.27 3.95-2.153 2.633-3.23 6.4-3.23 11.3v0c0 4.833 1.033 8.56 3.1 11.18 2.067 2.613 5.033 3.92 8.9 3.92v0c4.033 0 7.133-1.36 9.3-4.08 2.167-2.713 3.25-6.587 3.25-11.62v0c0-4.7-1.04-8.317-3.12-10.85-2.087-2.533-5.063-3.8-8.93-3.8zM140.95 39.05v20.4c0.1 3.667-0.817 6.523-2.75 8.57-1.933 2.053-4.683 3.08-8.25 3.08v0c-3.567 0-6.29-1-8.17-3-1.887-2-2.83-4.883-2.83-8.65v0-20.4h1v20.4c-0.033 3.433 0.817 6.067 2.55 7.9 1.733 1.833 4.217 2.75 7.45 2.75v0c3.233 0 5.71-0.917 7.43-2.75 1.713-1.833 2.57-4.467 2.57-7.9v0-20.4zM157.55 38.9c2 0 4.033 0.483 6.1 1.45v0l-0.2 0.9-0.35 0.05c-0.933-0.467-1.9-0.817-2.9-1.05-1-0.233-1.917-0.35-2.75-0.35v0c-1.6 0-3 0.34-4.2 1.02-1.2 0.687-2.117 1.57-2.75 2.65-0.633 1.087-0.95 2.197-0.95 3.33v0c0 1.167 0.317 2.173 0.95 3.02 0.633 0.853 1.407 1.553 2.32 2.1 0.92 0.553 2.197 1.23 3.83 2.03v0c1.8 0.9 3.227 1.683 4.28 2.35 1.047 0.667 1.947 1.523 2.7 2.57 0.747 1.053 1.12 2.33 1.12 3.83v0c0 1.467-0.4 2.84-1.2 4.12-0.8 1.287-1.91 2.303-3.33 3.05-1.413 0.753-3.003 1.13-4.77 1.13v0c-1.3 0-2.633-0.2-4-0.6-1.367-0.4-2.567-0.983-3.6-1.75v0l0.05-0.95 0.25-0.1c1 0.8 2.15 1.4 3.45 1.8 1.3 0.4 2.567 0.6 3.8 0.6v0c1.633 0 3.093-0.35 4.38-1.05 1.28-0.7 2.26-1.61 2.94-2.73 0.687-1.113 1.03-2.287 1.03-3.52v0c0-1.267-0.333-2.35-1-3.25-0.667-0.9-1.477-1.65-2.43-2.25-0.947-0.6-2.253-1.3-3.92-2.1v0c-1.767-0.867-3.16-1.627-4.18-2.28-1.013-0.647-1.877-1.48-2.59-2.5-0.72-1.013-1.08-2.237-1.08-3.67v0c0-1.433 0.383-2.75 1.15-3.95 0.767-1.2 1.833-2.15 3.2-2.85 1.367-0.7 2.917-1.05 4.65-1.05z" fill="#000000" fill-rule="nonzero" stroke="none" stroke-width="1" stroke-linecap="butt" stroke-linejoin="miter" stroke-miterlimit="10" stroke-dasharray="" stroke-dashoffset="0" font-family="none" font-weight="none" font-size="none" text-anchor="none" style="mix-blend-mode: normal" data-fill-palette-color="primary" opacity="1"></path></g></svg></g></svg></g></svg></g></svg></g><g transform="matrix(1,0,0,1,0,11.739363507803475)"><svg viewBox="0 0 187.05613540197461 177.52127298439302" height="177.52127298439302" width="187.05613540197461"><g><svg xmlns:x="http://ns.adobe.com/Extensibility/1.0/" xmlns:i="http://ns.adobe.com/AdobeIllustrator/10.0/" xmlns:graph="http://ns.adobe.com/Graphs/1.0/" xmlns="http://www.w3.org/2000/svg" xmlns:xlink="http://www.w3.org/1999/xlink" xmlns:a="http://ns.adobe.com/AdobeSVGViewerExtensions/3.0/" version="1.1" baseProfile="basic" x="0" y="0" viewBox="5.00000524520874 7 90.28196716308594 85.68000030517578" xml:space="preserve" height="177.52127298439302" width="187.05613540197461" class="icon-icon-0" data-fill-palette-color="accent" id="icon-0"><g fill="#f3a83c" data-fill-palette-color="accent"><g fill="#f3a83c" data-fill-palette-color="accent"><path fill-rule="evenodd" clip-rule="evenodd" d="M27.8 7c0.08 0 0.16 0 0.24 0 3.782 8.218 8.224 15.776 12 24 6.381-0.5 13.83 0.07 20.16-0.48C64.254 22.813 68.174 14.973 71.96 7c0.08 0 0.16 0 0.24 0 7.237 17.172 21.862 33.197 23.04 56.16 0.241 4.696-0.587 8.264-1.68 12.24-4.015 0.306-9.261-0.621-12.48 0.479 1.035 1.296 3.424 0.721 5.521 0.721 2.093 0 4.413 0 6.239 0-0.838 2.361-2.18 4.22-3.84 5.76-3.039-0.208-6.306-2.591-8.88-1.681 1.859 1.661 5.277 1.764 7.92 2.641-1.594 1.446-3.442 2.638-5.52 3.6-1.924-0.636-2.944-2.176-5.04-2.64-0.549 1.868 2.394 1.999 3.359 3.12-8.327 4.393-19.208 1.431-24-5.04-0.794-1.073-1.03-2.364-1.439-3.36-2.436 3.593-5.646 6.279-10.32 8.641-6.24 3.151-11.692 4.345-18.96 1.199 2.201-1.959 5.494-2.825 7.44-5.04-2.929-0.438-6.17 3.498-9.36 4.561-2.765-1.155-5.445-2.395-7.92-3.84 4.169-2.231 10.464-2.337 14.4-4.801-0.732-1.116-2.44-0.08-3.6 0.24-3.561 0.982-8.259 2.354-12 3.36-3.046-1.754-5.072-4.528-6.96-7.44 6.196-0.872 14.938 0.549 21.12-0.72-0.593-1.306-3.322-0.72-5.04-0.72-5.187 0-11.452 0-16.8 0-1.154-2.446-1.785-5.415-2.4-8.4 0-2.32 0-4.64 0-6.96C8.612 37.732 20.173 24.333 27.8 7zM15.08 35.32c5.439-3.361 12.757-4.843 21.36-5.04-2.758-7.242-5.683-14.318-9.12-20.88C23.27 18.07 18.997 26.517 15.08 35.32zM63.08 30.28c8.713 0.007 16.575 2.145 21.6 5.04-4.483-8.396-8.175-17.584-12.72-25.92C68.947 16.149 65.377 23.614 63.08 30.28zM32.36 61.96c4.751-0.141 4.103-16.594-0.72-15.12C27.843 48.001 28.048 62.088 32.36 61.96zM72.92 59.8c4.796-0.21 4.04-14.687-0.96-12.96C68.407 48.067 68.26 60.004 72.92 59.8zM55.64 78.04c2.686-5.315 5.897-10.104 8.641-15.36-5.681 0.16-12-0.319-17.28 0.24C50.132 67.708 52.521 73.24 55.64 78.04z" fill="#000000" data-fill-palette-color="accent"></path><path fill-rule="evenodd" clip-rule="evenodd" d="M47 92.68c-3.04 0-6.08 0-9.12 0 5.233-1.309 9.748-3.471 13.681-6.479 0.828-0.634 3.181-3.151 3.6-3.12-0.026-0.002 2.421 2.446 2.64 2.64 3.234 2.859 6.17 4.809 10.32 6C61.367 92.327 53.867 92.188 47 92.68z" fill="#000000" data-fill-palette-color="accent"></path></g></g></svg></g></svg></g></svg></g><defs></defs></svg><rect width="395.52" height="151.70150200175755" fill="none" stroke="none" visibility="hidden"></rect></g></svg></g></svg>